<svg width="250" height="250" viewBox="0 0 250 250" fill="none" xmlns="http://www.w3.org/2000/svg">
<g clip-path="url(#clip0)">
<rect width="250" height="250" fill="white"/>
<rect width="250" height="250" fill="#0283C0"/>
<path d="M46 193.47C46 195.972 44.1488 198 41.8652 198L4.13483 198C1.85122 198 -3.42059e-06 195.972 -3.21698e-06 193.47L-1.29338e-07 155.53C7.4275e-08 153.028 1.85123 151 4.13483 151L41.8652 151C44.1488 151 46 153.028 46 155.53L46 193.47Z" fill="#0490D3"/>
<path d="M153 60.4354C153 57.9345 154.811 55.9072 157.044 55.9072L194.956 55.9072C197.189 55.9072 199 57.9346 199 60.4354L199 97.7926C199 100.293 197.189 102.321 194.956 102.321L157.044 102.321C154.811 102.321 153 100.293 153 97.7926L153 60.4354Z" fill="#0178AF"/>
<path d="M46 245.671C46 248.062 44.1488 250 41.8652 250L4.13483 250C1.85122 250 -3.42766e-06 248.062 -3.23276e-06 245.671L-1.89034e-07 208.329C5.86535e-09 205.938 1.85123 204 4.13483 204L41.8652 204C44.1488 204 46 205.938 46 208.329L46 245.671Z" fill="#03699A"/>
<path d="M153 4.4112C153 1.97496 154.811 3.045e-07 157.044 6.80119e-07L194.956 7.05624e-06C197.189 7.43186e-06 199 1.97497 199 4.41121L199 44.112C199 46.5482 197.189 48.5232 194.956 48.5232L157.044 48.5232C154.811 48.5232 153 46.5482 153 44.112L153 4.4112Z" fill="#0490D3"/>
<path d="M250 70.5556C250 73.0102 248.189 75 245.956 75L208.044 75C205.811 75 204 73.0101 204 70.5556L204 34.4444C204 31.9898 205.811 30 208.044 30L245.956 30C248.189 30 250 31.9898 250 34.4444L250 70.5556Z" fill="#0275AB"/>
<path fill-rule="evenodd" clip-rule="evenodd" d="M55.044 245.536L92.956 245.536L92.956 186.953L55.044 186.953L55.044 245.536ZM92.956 250C95.1895 250 97 248.002 97 245.536L97 186.953C97 184.488 95.1895 182.489 92.956 182.489L55.044 182.489C52.8105 182.489 51 184.488 51 186.953L51 245.536C51 248.002 52.8105 250 55.044 250L92.956 250Z" fill="#0178AF"/>
<path d="M46 100.321C46 102.905 44.1488 105 41.8652 105L4.13483 105C1.85122 105 -3.41179e-06 102.905 -3.19732e-06 100.321L1.17151e-06 47.6792C1.38598e-06 45.095 1.85123 43 4.13483 43L41.8652 43C44.1488 43 46 45.095 46 47.6792L46 100.321Z" fill="#0178AF"/>
<path d="M97 93.7134C97 96.1369 95.1895 98.1016 92.956 98.1016L55.044 98.1016C52.8105 98.1016 51 96.1369 51 93.7134L51 47.6374C51 45.2139 52.8105 43.2492 55.044 43.2492L92.956 43.2492C95.1895 43.2492 97 45.2139 97 47.6374L97 93.7134Z" fill="#0178AF"/>
<path d="M153 152.18C153 149.694 154.811 147.679 157.044 147.679L194.956 147.679C197.189 147.679 199 149.694 199 152.18L199 202.25C199 204.736 197.189 206.751 194.956 206.751L157.044 206.751C154.811 206.751 153 204.736 153 202.25L153 152.18Z" fill="#0178AF"/>
<path fill-rule="evenodd" clip-rule="evenodd" d="M208.044 172.505L245.956 172.505L245.956 122.495L208.044 122.495L208.044 172.505ZM245.956 177C248.189 177 250 174.987 250 172.505L250 122.495C250 120.013 248.189 118 245.956 118L208.044 118C205.811 118 204 120.013 204 122.495L204 172.505C204 174.987 205.811 177 208.044 177L245.956 177Z" fill="#0178AF"/>
<path d="M148 126.296C148 128.342 146.189 130 143.956 130L106.044 130C103.811 130 102 128.342 102 126.296L102 58.7037C102 56.6582 103.811 55 106.044 55L143.956 55C146.189 55 148 56.6582 148 58.7037L148 126.296Z" fill="#0490D3"/>
<path fill-rule="evenodd" clip-rule="evenodd" d="M208.044 245.556L245.956 245.556L245.956 229.444L208.044 229.444L208.044 245.556ZM245.956 250C248.189 250 250 248.01 250 245.556L250 229.444C250 226.99 248.189 225 245.956 225L208.044 225C205.811 225 204 226.99 204 229.444L204 245.556C204 248.01 205.811 250 208.044 250L245.956 250Z" fill="#0188C8"/>
<path fill-rule="evenodd" clip-rule="evenodd" d="M106.044 245.525L143.956 245.525L143.956 217.555L106.044 217.555L106.044 245.525ZM143.956 250C146.189 250 148 247.996 148 245.525L148 217.555C148 215.084 146.189 213.08 143.956 213.08L106.044 213.08C103.811 213.08 102 215.084 102 217.555L102 245.525C102 247.996 103.811 250 106.044 250L143.956 250Z" fill="#0093DA"/>
<path d="M46 34.4783C46 36.9755 44.1488 39 41.8652 39L4.13483 39C1.85122 39 -3.42163e-06 36.9755 -3.2193e-06 34.4783L-7.92189e-07 4.52174C-5.89856e-07 2.02445 1.85123 1.22058e-06 4.13483 1.436e-06L41.8652 4.99511e-06C44.1488 5.21052e-06 46 2.02446 46 4.52174L46 34.4783Z" fill="#03699A"/>
<path d="M97 32.3759C97 34.8855 95.1895 36.9199 92.956 36.9199L55.044 36.9199C52.8105 36.9199 51 34.8855 51 32.3759L51 4.54407C51 2.0345 52.8105 9.13941e-05 55.044 9.16001e-05L92.956 9.50961e-05C95.1895 9.5302e-05 97 2.0345 97 4.54407L97 32.3759Z" fill="#0178AF"/>
<path d="M153 217.555C153 215.084 154.811 213.08 157.044 213.08L194.956 213.08C197.189 213.08 199 215.084 199 217.555L199 245.525C199 247.996 197.189 250 194.956 250L157.044 250C154.811 250 153 247.996 153 245.525L153 217.555Z" fill="#0275AB"/>
<path d="M250 213.613C250 216.036 248.189 218 245.956 218L208.044 218C205.811 218 204 216.036 204 213.613L204 188.387C204 185.964 205.811 184 208.044 184L245.956 184C248.189 184 250 185.964 250 188.387L250 213.613Z" fill="#0188C8"/>
<path d="M148 200.072C148 203.246 146.189 205.819 143.956 205.819L106.044 205.819C103.811 205.819 102 203.246 102 200.072L102 140.445C102 137.271 103.811 134.698 106.044 134.698L143.956 134.698C146.189 134.698 148 137.271 148 140.445L148 200.072Z" fill="#0275AB"/>
<path d="M97 172.6C97 175.149 95.1895 177.215 92.956 177.215L55.044 177.215C52.8105 177.215 51 175.149 51 172.6L51 144.91C51 142.362 52.8105 140.296 55.044 140.296L92.956 140.296C95.1895 140.296 97 142.362 97 144.91L97 172.6Z" fill="#0490D3"/>
<path d="M250 107.472C250 109.973 248.189 112 245.956 112L208.044 112C205.811 112 204 109.973 204 107.472L204 86.5283C204 84.0274 205.811 82 208.044 82L245.956 82C248.189 82 250 84.0274 250 86.5283L250 107.472Z" fill="#0490D3"/>
<path fill-rule="evenodd" clip-rule="evenodd" d="M106.044 44.0094L143.956 44.0094L143.956 4.51378L106.044 4.51378L106.044 44.0094ZM143.956 48.5232C146.189 48.5232 148 46.5023 148 44.0094L148 4.51378C148 2.02089 146.189 -5.39902e-06 143.956 -5.60497e-06L106.044 -9.10096e-06C103.811 -9.30691e-06 102 2.02088 102 4.51378L102 44.0094C102 46.5023 103.811 48.5232 106.044 48.5232L143.956 48.5232Z" fill="#0178AF"/>
<path fill-rule="evenodd" clip-rule="evenodd" d="M4.13483 140.39L41.8652 140.39L41.8652 115.61L4.13483 115.61L4.13483 140.39ZM41.8652 145C44.1488 145 46 142.936 46 140.39L46 115.61C46 113.064 44.1488 111 41.8652 111L4.13483 111C1.85122 111 -9.86618e-07 113.064 -1.19383e-06 115.61L-3.21047e-06 140.39C-3.41768e-06 142.936 1.85122 145 4.13483 145L41.8652 145Z" fill="#0093DA"/>
<path fill-rule="evenodd" clip-rule="evenodd" d="M55.044 130.489L92.956 130.489L92.956 108.962L55.044 108.962L55.044 130.489ZM92.956 135.021C95.1895 135.021 97 132.992 97 130.489L97 108.962C97 106.46 95.1895 104.431 92.956 104.431L55.044 104.431C52.8105 104.431 51 106.46 51 108.962L51 130.489C51 132.992 52.8105 135.021 55.044 135.021L92.956 135.021Z" fill="#0178AF"/>
<path d="M153 114.075C153 111.661 154.811 109.705 157.044 109.705L194.956 109.705C197.189 109.705 199 111.661 199 114.075L199 135.925C199 138.339 197.189 140.296 194.956 140.296L157.044 140.296C154.811 140.296 153 138.339 153 135.925L153 114.075Z" fill="#0490D3"/>
<path fill-rule="evenodd" clip-rule="evenodd" d="M125.134 109.7C127.067 109.7 128.634 111.267 128.634 113.2V139.6C128.634 141.533 127.067 143.1 125.134 143.1C123.201 143.1 121.634 141.533 121.634 139.6V113.2C121.634 111.267 123.201 109.7 125.134 109.7Z" fill="white"/>
<path fill-rule="evenodd" clip-rule="evenodd" d="M109.474 127.071C110.686 125.565 112.889 125.327 114.395 126.539L127.729 137.274C129.235 138.486 129.473 140.689 128.261 142.195C127.049 143.7 124.845 143.938 123.34 142.726L110.005 131.992C108.5 130.78 108.262 128.576 109.474 127.071Z" fill="white"/>
<path fill-rule="evenodd" clip-rule="evenodd" d="M141.818 126.86C143.032 128.364 142.797 130.567 141.293 131.781L127.733 142.724C126.228 143.938 124.025 143.702 122.811 142.198C121.597 140.694 121.832 138.49 123.337 137.276L136.897 126.334C138.401 125.12 140.604 125.355 141.818 126.86Z" fill="white"/>
<path fill-rule="evenodd" clip-rule="evenodd" d="M104.2 65C103.648 65 103.2 65.4477 103.2 66V90.8C103.2 91.3523 103.648 91.8 104.2 91.8H147.4C147.952 91.8 148.4 91.3523 148.4 90.8V66C148.4 65.4477 147.952 65 147.4 65H104.2ZM97.2 66C97.2 62.134 100.334 59 104.2 59H147.4C151.266 59 154.4 62.134 154.4 66V90.8C154.4 94.666 151.266 97.8 147.4 97.8H104.2C100.334 97.8 97.2 94.666 97.2 90.8V66Z" fill="white"/>
<path fill-rule="evenodd" clip-rule="evenodd" d="M98.2 81.4001V75.4001H153.4V81.4001H98.2Z" fill="white"/>
<path d="M97 162.8C97 159.266 99.8654 156.4 103.4 156.4H123.4V192.4H103.4C99.8654 192.4 97 189.535 97 186V162.8Z" fill="white"/>
<path d="M127.4 156.4H147.4C150.935 156.4 153.8 159.266 153.8 162.8V186C153.8 189.535 150.935 192.4 147.4 192.4H127.4V156.4Z" fill="white"/>
<path fill-rule="evenodd" clip-rule="evenodd" d="M125 30C71.9807 30 29 72.9807 29 126C29 179.019 71.9807 222 125 222C178.019 222 221 179.019 221 126C221 72.9807 178.019 30 125 30ZM21 126C21 68.5624 67.5624 22 125 22C182.438 22 229 68.5624 229 126C229 183.438 182.438 230 125 230C67.5624 230 21 183.438 21 126Z" fill="white"/>
</g>
<defs>
<clipPath id="clip0">
<rect width="250" height="250" fill="white"/>
</clipPath>
</defs>
</svg>
